<?xml version="1.0" standalone="no"?>
<!DOCTYPE svg PUBLIC "-//W3C//DTD SVG 20010904//EN"
 "http://www.w3.org/TR/2001/REC-SVG-20010904/DTD/svg10.dtd">
<svg version="1.0" xmlns="http://www.w3.org/2000/svg"
 width="225.000000pt" height="225.000000pt" viewBox="0 0 225.000000 225.000000"
 preserveAspectRatio="xMidYMid meet">
<metadata>
Created by potrace 1.14, written by Peter Selinger 2001-2017
</metadata>
<g transform="translate(0.000000,225.000000) scale(0.100000,-0.100000)"
fill="#000000" stroke="none">
<path d="M528 2198 c-7 -4 -23 -8 -35 -8 -13 0 -32 -9 -42 -19 -11 -11 -22
-17 -24 -14 -3 2 -10 -4 -16 -15 -6 -11 -19 -28 -28 -38 -20 -19 -23 -29 -27
-102 -3 -42 -10 -60 -31 -82 -15 -16 -34 -26 -41 -23 -8 3 -14 1 -14 -4 0 -5
-27 -17 -60 -26 -33 -10 -60 -22 -60 -28 0 -6 -7 -9 -15 -5 -8 3 -15 1 -15 -4
0 -5 -8 -9 -17 -8 -54 1 -108 -38 -96 -69 9 -24 22 -32 45 -27 10 2 27 6 38 8
11 3 20 2 20 -2 0 -4 86 -7 190 -7 145 0 190 -3 190 -12 0 -7 5 -13 10 -13 14
0 12 -56 -2 -83 -23 -40 -45 -66 -51 -60 -4 3 -12 -6 -18 -21 -7 -15 -26 -35
-44 -46 -41 -25 -80 -60 -69 -60 5 0 2 -6 -6 -13 -19 -15 -73 -97 -64 -97 4 0
0 -8 -8 -17 -28 -33 -58 -148 -59 -230 -1 -86 9 -160 22 -169 5 -3 7 -10 4
-15 -4 -5 -1 -9 6 -9 7 0 9 -3 6 -6 -4 -4 2 -19 13 -34 11 -16 20 -33 20 -38
0 -6 11 -19 25 -30 14 -11 25 -24 25 -29 0 -13 89 -94 140 -128 25 -17 47 -33
48 -38 2 -4 8 -5 13 -1 5 3 9 -2 9 -11 0 -9 5 -13 11 -9 6 3 14 2 18 -2 6 -10
96 -50 151 -69 3 -1 13 -5 22 -9 9 -4 21 -5 27 -2 5 3 11 2 13 -4 1 -5 17 -11
33 -13 17 -2 37 -7 43 -11 7 -4 32 -9 55 -11 l42 -3 0 -72 c0 -57 -4 -75 -17
-85 -10 -6 -15 -14 -12 -17 10 -11 -30 -17 -104 -16 -43 1 -78 -4 -84 -10 -7
-7 -23 -12 -36 -12 -27 0 -62 -17 -62 -29 0 -9 51 -33 66 -30 26 5 74 -2 74
-11 0 -8 -52 -41 -65 -40 -3 0 -5 -3 -5 -7 0 -5 22 -8 49 -8 27 0 47 -3 44 -7
-2 -5 8 -8 22 -8 36 0 65 -17 65 -39 0 -12 9 -20 25 -23 14 -3 25 -1 25 3 0 5
9 9 20 9 11 0 20 5 20 11 0 5 5 7 10 4 6 -3 10 -1 10 4 0 6 7 11 15 11 9 0 18
7 21 15 3 8 16 15 27 15 21 -1 75 5 88 8 8 3 7 32 -2 32 -12 0 -27 56 -19 70
5 7 6 19 3 27 -3 7 -1 13 5 13 8 0 22 33 27 65 0 6 6 23 13 38 7 16 12 33 12
38 0 5 5 9 12 9 6 0 9 3 5 6 -13 13 18 29 52 27 20 -1 56 3 81 8 25 5 57 11
72 13 15 3 33 8 40 13 7 4 22 8 33 10 31 3 48 8 71 21 12 6 24 8 28 5 3 -3 6
-1 6 6 0 7 5 9 11 6 5 -4 19 1 31 12 11 10 22 17 24 16 11 -7 66 12 71 23 3 8
9 12 13 9 5 -3 11 -1 15 5 4 6 11 8 16 5 5 -4 9 -1 9 6 0 6 8 9 20 6 11 -3 20
-2 20 1 0 8 56 42 67 41 3 -1 10 6 15 15 5 9 13 16 18 16 12 0 43 25 94 75 23
22 55 47 71 55 31 15 71 53 141 134 39 45 41 49 38 107 -2 33 1 57 5 54 5 -3
7 4 4 15 -7 27 -76 27 -119 1 -32 -19 -32 -19 -66 5 -18 13 -67 33 -108 45
-40 11 -78 23 -84 27 -6 4 -13 7 -16 8 -3 0 -14 4 -25 8 -63 24 -75 28 -81 26
-4 -1 -10 4 -15 12 -5 7 -13 14 -19 14 -5 1 -11 2 -12 4 -2 1 -12 3 -22 5 -10
2 -22 8 -25 13 -3 5 -17 13 -31 17 -14 4 -63 25 -110 47 -184 86 -241 105
-330 110 -8 1 -18 5 -21 10 -3 5 -74 10 -158 10 -122 0 -154 3 -166 15 -14 13
-13 18 5 47 11 18 17 35 14 39 -3 3 1 16 9 29 9 12 19 41 23 63 3 22 10 47 15
55 4 9 10 46 13 84 2 37 7 70 9 73 3 2 1 19 -5 36 -5 18 -12 46 -15 62 -3 17
-10 39 -16 50 -6 11 -12 25 -13 32 -8 48 -136 155 -164 138 -6 -4 -10 -1 -10
4 0 6 -10 11 -22 11 -13 0 -49 2 -80 3 -32 2 -63 0 -70 -5z m553 -1792 c-9
-10 -9 -16 -1 -21 8 -5 8 -11 1 -19 -6 -7 -12 -23 -14 -35 -2 -13 -8 -26 -13
-29 -9 -7 -15 -32 -15 -64 0 -23 -21 -29 -44 -12 -10 8 -14 14 -8 14 6 0 9 16
6 40 -3 22 -2 48 3 58 9 21 9 20 18 55 7 23 14 27 43 27 29 0 33 -2 24 -14z"/>
</g>
</svg>
